<?xml version="1.0" encoding="UTF-8"?>
<svg xmlns="http://www.w3.org/2000/svg" xmlns:xlink="http://www.w3.org/1999/xlink" width="100px" height="100px" viewBox="0 0 100 100" version="1.1">
<g id="surface1">
<path style=" stroke:none;fill-rule:nonzero;fill:rgb(0%,0%,0%);fill-opacity:1;" d="M 40.214844 38.726562 C 29.691406 38.726562 21.128906 30.164062 21.128906 19.636719 C 21.128906 9.113281 29.691406 0.550781 40.214844 0.550781 C 50.742188 0.550781 59.304688 9.113281 59.304688 19.636719 C 59.304688 30.164062 50.742188 38.726562 40.214844 38.726562 Z M 40.214844 8.234375 C 33.925781 8.234375 28.8125 13.347656 28.8125 19.636719 C 28.8125 25.925781 33.925781 31.042969 40.214844 31.042969 C 46.503906 31.042969 51.621094 25.925781 51.621094 19.636719 C 51.621094 13.347656 46.503906 8.234375 40.214844 8.234375 Z M 40.214844 8.234375 "/>
<path style=" stroke:none;fill-rule:nonzero;fill:rgb(0%,0%,0%);fill-opacity:1;" d="M 13.414062 99.339844 C 11.292969 99.339844 9.574219 97.617188 9.574219 95.496094 L 9.574219 68.335938 C 9.574219 56.109375 19.519531 46.160156 31.75 46.160156 L 48.683594 46.160156 C 56.277344 46.160156 63.269531 50.007812 67.386719 56.449219 C 68.574219 58.316406 69.476562 60.335938 70.0625 62.457031 C 70.628906 64.5 69.429688 66.617188 67.382812 67.183594 C 65.34375 67.753906 63.222656 66.550781 62.65625 64.503906 C 62.273438 63.125 61.6875 61.804688 60.910156 60.589844 C 58.210938 56.367188 53.640625 53.84375 48.683594 53.84375 L 31.75 53.84375 C 23.757812 53.84375 17.257812 60.347656 17.257812 68.335938 L 17.257812 95.496094 C 17.257812 97.617188 15.535156 99.339844 13.414062 99.339844 Z M 13.414062 99.339844 "/>
<path style=" stroke:none;fill-rule:nonzero;fill:rgb(0%,0%,0%);fill-opacity:1;" d="M 67.015625 99.339844 C 64.894531 99.339844 63.175781 97.617188 63.175781 95.496094 L 63.175781 93.042969 C 63.175781 90.921875 64.894531 89.199219 67.015625 89.199219 C 69.140625 89.199219 70.859375 90.921875 70.859375 93.042969 L 70.859375 95.496094 C 70.859375 97.617188 69.136719 99.339844 67.015625 99.339844 Z M 67.015625 99.339844 "/>
<path style=" stroke:none;fill-rule:nonzero;fill:rgb(0%,0%,0%);fill-opacity:1;" d="M 37.5 76.003906 L 46.847656 66.65625 C 48.347656 65.15625 50.777344 65.15625 52.277344 66.65625 C 53.777344 68.15625 53.777344 70.589844 52.277344 72.089844 L 49.492188 74.878906 L 86.472656 74.878906 C 88.597656 74.878906 90.316406 76.597656 90.316406 78.71875 C 90.316406 80.839844 88.597656 82.5625 86.472656 82.5625 L 49.488281 82.5625 L 52.277344 85.351562 C 53.777344 86.851562 53.777344 89.28125 52.277344 90.78125 C 51.527344 91.53125 50.546875 91.90625 49.5625 91.90625 C 48.578125 91.90625 47.59375 91.53125 46.84375 90.78125 L 37.5 81.433594 C 36 79.933594 36 77.503906 37.5 76.003906 Z M 37.5 76.003906 "/>
</g>
</svg>
