<?xml version="1.0" encoding="UTF-8"?>
<svg xmlns="http://www.w3.org/2000/svg" xmlns:xlink="http://www.w3.org/1999/xlink" width="100px" height="100px" viewBox="0 0 100 100" version="1.1">
<g id="surface1">
<path style=" stroke:none;fill-rule:nonzero;fill:rgb(0%,0%,0%);fill-opacity:1;" d="M 0.0390625 0.09375 C 0.015625 0.148438 0.0078125 22.640625 0.015625 50.078125 L 0.0390625 99.960938 L 99.960938 99.960938 L 99.960938 0.0390625 L 50.015625 0.015625 C 10.101562 0 0.0625 0.015625 0.0390625 0.09375 Z M 99.648438 50 L 99.648438 99.648438 L 0.351562 99.648438 L 0.328125 50.078125 C 0.320312 22.8125 0.328125 0.460938 0.351562 0.40625 C 0.375 0.328125 10.351562 0.3125 50.015625 0.328125 L 99.648438 0.351562 Z M 99.648438 50 "/>
<path style=" stroke:none;fill-rule:nonzero;fill:rgb(0%,0%,0%);fill-opacity:1;" d="M 2.539062 2.59375 C 2.515625 2.648438 2.507812 24.015625 2.515625 50.078125 L 2.539062 97.460938 L 97.460938 97.460938 L 97.460938 2.539062 L 50.015625 2.515625 C 12.101562 2.5 2.5625 2.515625 2.539062 2.59375 Z M 76.015625 38.28125 L 76.015625 66.40625 L 83.125 66.40625 L 83.125 75.15625 L 76.015625 75.15625 L 76.015625 83.945312 L 81.914062 89.84375 L 63.398438 89.835938 L 44.882812 89.835938 L 42.578125 87.421875 L 40.273438 85.015625 L 36.304688 84.992188 C 34.125 84.976562 32.34375 84.976562 32.34375 85 C 32.34375 85.023438 33.421875 86.117188 34.742188 87.4375 L 37.148438 89.84375 L 33.59375 89.84375 L 30.039062 89.835938 L 23.960938 83.945312 L 24.015625 76.953125 C 24.039062 73.109375 24.085938 65.507812 24.109375 60.054688 L 24.164062 50.15625 L 37.164062 50.15625 L 38.578125 46.734375 C 39.351562 44.859375 40.335938 42.484375 40.75 41.460938 C 41.171875 40.445312 41.539062 39.609375 41.5625 39.609375 C 41.617188 39.609375 41.53125 39.484375 46.632812 47.625 L 51.179688 54.898438 L 41.765625 69.28125 C 36.578125 77.1875 32.34375 83.679688 32.34375 83.703125 C 32.34375 83.726562 34.078125 83.75 36.203125 83.75 L 40.054688 83.75 L 48.71875 70.96875 L 57.382812 58.179688 L 57.40625 65.929688 L 57.421875 73.671875 L 81.5625 73.671875 L 81.5625 67.734375 L 63.984375 67.734375 L 63.984375 52.304688 L 57.960938 42.539062 C 54.648438 37.164062 51.851562 32.625 51.742188 32.4375 L 51.546875 32.109375 L 62.171875 32.109375 L 65.359375 37.398438 C 67.117188 40.3125 68.671875 42.890625 68.828125 43.132812 L 69.101562 43.578125 L 71.679688 42.070312 C 73.367188 41.09375 74.25 40.53125 74.234375 40.460938 C 74.21875 40.398438 72.21875 37.125 69.789062 33.179688 L 65.375 26.015625 L 48.140625 26.015625 L 48.046875 26.539062 C 47.992188 26.875 47.851562 27.242188 47.664062 27.570312 C 47.5 27.851562 47.265625 28.257812 47.148438 28.476562 C 46.789062 29.101562 45.484375 30.390625 44.734375 30.851562 C 43.71875 31.46875 42.648438 31.914062 41.71875 32.09375 C 40.5 32.335938 40.234375 32.359375 38.804688 32.414062 L 37.484375 32.460938 L 35.132812 38.6875 L 32.773438 44.921875 L 24.140625 44.921875 L 24.140625 10.15625 L 76.015625 10.15625 Z M 76.015625 38.28125 "/>
<path style=" stroke:none;fill-rule:nonzero;fill:rgb(0%,0%,0%);fill-opacity:1;" d="M 38.632812 15.976562 C 36.945312 16.1875 36.015625 16.59375 34.828125 17.617188 C 33.640625 18.648438 32.875 19.796875 32.59375 20.984375 C 32.210938 22.59375 32.210938 23.71875 32.59375 25.3125 C 32.875 26.484375 33.9375 28.125 34.828125 28.765625 C 36.226562 29.78125 37.109375 30.132812 38.734375 30.3125 C 40.1875 30.484375 41.976562 30.15625 43.054688 29.53125 C 44.710938 28.5625 46.109375 26.820312 46.46875 25.273438 C 46.84375 23.671875 46.84375 22.671875 46.46875 21.054688 C 46.203125 19.898438 45.804688 19.265625 44.539062 18.023438 C 43.71875 17.21875 43.34375 16.90625 42.890625 16.664062 C 42.28125 16.335938 41.296875 16.0625 40.429688 15.976562 C 40.171875 15.953125 39.835938 15.921875 39.6875 15.90625 C 39.539062 15.890625 39.0625 15.921875 38.632812 15.976562 Z M 38.632812 15.976562 "/>
</g>
</svg>
