<?xml version="1.0" encoding="UTF-8"?>
<svg xmlns="http://www.w3.org/2000/svg" xmlns:xlink="http://www.w3.org/1999/xlink" width="50px" height="50px" viewBox="0 0 50 50" version="1.1">
<g id="surface1">
<path style=" stroke:none;fill-rule:nonzero;fill:rgb(12.54902%,76.862745%,79.607843%);fill-opacity:1;" d="M 49.667969 24.972656 C 49.667969 38.613281 38.613281 49.667969 24.972656 49.667969 C 11.332031 49.667969 0.273438 38.613281 0.273438 24.972656 C 0.273438 11.332031 11.332031 0.273438 24.972656 0.273438 C 38.613281 0.273438 49.667969 11.332031 49.667969 24.972656 Z M 49.667969 24.972656 "/>
<path style=" stroke:none;fill-rule:nonzero;fill:rgb(10.588235%,65.490196%,67.843137%);fill-opacity:1;" d="M 18.738281 26.761719 C 14.414062 26.761719 10.898438 23.242188 10.898438 18.921875 C 10.898438 14.597656 14.414062 11.078125 18.738281 11.078125 C 23.0625 11.078125 26.578125 14.597656 26.578125 18.921875 C 26.578125 23.246094 23.0625 26.761719 18.738281 26.761719 Z M 18.738281 14.371094 C 16.230469 14.371094 14.191406 16.414062 14.191406 18.921875 C 14.191406 21.429688 16.230469 23.46875 18.738281 23.46875 C 21.246094 23.46875 23.285156 21.429688 23.285156 18.921875 C 23.285156 16.414062 21.246094 14.371094 18.738281 14.371094 Z M 18.738281 14.371094 "/>
<path style=" stroke:none;fill-rule:nonzero;fill:rgb(10.588235%,65.490196%,67.843137%);fill-opacity:1;" d="M 27.300781 37.261719 L 27.300781 32.972656 C 27.300781 29.644531 24.578125 26.917969 21.246094 26.917969 L 16.960938 26.917969 C 13.628906 26.917969 10.90625 29.644531 10.90625 32.972656 L 10.90625 37.261719 L 27.300781 37.261719 "/>
<path style=" stroke:none;fill-rule:nonzero;fill:rgb(10.588235%,65.490196%,67.843137%);fill-opacity:1;" d="M 27.300781 38.910156 L 10.90625 38.910156 C 9.996094 38.910156 9.257812 38.171875 9.257812 37.261719 L 9.257812 32.972656 C 9.257812 28.726562 12.710938 25.273438 16.960938 25.273438 L 21.25 25.273438 C 25.496094 25.273438 28.949219 28.726562 28.949219 32.972656 L 28.949219 37.261719 C 28.949219 38.171875 28.210938 38.910156 27.300781 38.910156 Z M 12.550781 35.617188 L 25.65625 35.617188 L 25.65625 32.972656 C 25.65625 30.542969 23.679688 28.566406 21.25 28.566406 L 16.960938 28.566406 C 14.527344 28.566406 12.550781 30.542969 12.550781 32.972656 Z M 12.550781 35.617188 "/>
<path style=" stroke:none;fill-rule:nonzero;fill:rgb(100%,100%,100%);fill-opacity:1;" d="M 26.597656 17.253906 C 26.597656 20.675781 23.824219 23.449219 20.402344 23.449219 C 16.984375 23.449219 14.210938 20.675781 14.210938 17.253906 C 14.210938 13.832031 16.984375 11.058594 20.402344 11.058594 C 23.824219 11.058594 26.597656 13.832031 26.597656 17.253906 Z M 26.597656 17.253906 "/>
<path style=" stroke:none;fill-rule:nonzero;fill:rgb(100%,100%,100%);fill-opacity:1;" d="M 20.40625 25.09375 C 16.082031 25.09375 12.566406 21.578125 12.566406 17.253906 C 12.566406 12.929688 16.082031 9.414062 20.40625 9.414062 C 24.730469 9.414062 28.246094 12.929688 28.246094 17.253906 C 28.246094 21.578125 24.730469 25.09375 20.40625 25.09375 Z M 20.40625 12.707031 C 17.898438 12.707031 15.859375 14.746094 15.859375 17.253906 C 15.859375 19.761719 17.898438 21.800781 20.40625 21.800781 C 22.914062 21.800781 24.953125 19.761719 24.953125 17.253906 C 24.953125 14.746094 22.914062 12.707031 20.40625 12.707031 Z M 20.40625 12.707031 "/>
<path style=" stroke:none;fill-rule:nonzero;fill:rgb(100%,100%,100%);fill-opacity:1;" d="M 28.707031 35.855469 L 28.707031 31.566406 C 28.707031 28.238281 25.984375 25.511719 22.652344 25.511719 L 18.363281 25.511719 C 15.035156 25.511719 12.308594 28.238281 12.308594 31.566406 L 12.308594 35.855469 L 28.707031 35.855469 "/>
<path style=" stroke:none;fill-rule:nonzero;fill:rgb(100%,100%,100%);fill-opacity:1;" d="M 28.707031 37.503906 L 12.308594 37.503906 C 11.402344 37.503906 10.664062 36.765625 10.664062 35.855469 L 10.664062 31.566406 C 10.664062 27.320312 14.117188 23.867188 18.363281 23.867188 L 22.652344 23.867188 C 26.898438 23.867188 30.355469 27.320312 30.355469 31.566406 L 30.355469 35.855469 C 30.355469 36.765625 29.617188 37.503906 28.707031 37.503906 Z M 13.957031 34.210938 L 27.0625 34.210938 L 27.0625 31.566406 C 27.0625 29.136719 25.085938 27.160156 22.652344 27.160156 L 18.363281 27.160156 C 15.933594 27.160156 13.957031 29.136719 13.957031 31.566406 Z M 13.957031 34.210938 "/>
<path style=" stroke:none;fill-rule:nonzero;fill:rgb(12.54902%,76.862745%,79.607843%);fill-opacity:1;" d="M 43.835938 33.820312 C 43.835938 38.734375 39.847656 42.71875 34.933594 42.71875 C 30.015625 42.71875 26.03125 38.734375 26.03125 33.820312 C 26.03125 28.902344 30.015625 24.917969 34.933594 24.917969 C 39.847656 24.917969 43.835938 28.902344 43.835938 33.820312 Z M 43.835938 33.820312 "/>
<path style=" stroke:none;fill-rule:nonzero;fill:rgb(10.588235%,65.490196%,67.843137%);fill-opacity:1;" d="M 37.289062 40.484375 C 36.867188 40.484375 36.445312 40.324219 36.125 40 L 29.644531 33.523438 C 29.003906 32.878906 29.003906 31.835938 29.644531 31.195312 C 30.289062 30.550781 31.332031 30.550781 31.972656 31.195312 L 38.453125 37.671875 C 39.09375 38.316406 39.09375 39.359375 38.453125 40 C 38.128906 40.324219 37.710938 40.484375 37.289062 40.484375 Z M 37.289062 40.484375 "/>
<path style=" stroke:none;fill-rule:nonzero;fill:rgb(10.588235%,65.490196%,67.843137%);fill-opacity:1;" d="M 30.808594 40.484375 C 30.390625 40.484375 29.96875 40.324219 29.644531 40 C 29.003906 39.359375 29.003906 38.316406 29.644531 37.671875 L 36.125 31.195312 C 36.765625 30.550781 37.808594 30.550781 38.453125 31.195312 C 39.09375 31.835938 39.09375 32.878906 38.453125 33.523438 L 31.972656 40 C 31.652344 40.324219 31.230469 40.484375 30.808594 40.484375 Z M 30.808594 40.484375 "/>
<path style=" stroke:none;fill-rule:nonzero;fill:rgb(100%,100%,100%);fill-opacity:1;" d="M 38.8125 38.839844 C 38.390625 38.839844 37.972656 38.679688 37.648438 38.359375 L 31.171875 31.882812 C 30.527344 31.238281 30.527344 30.195312 31.171875 29.554688 C 31.816406 28.910156 32.855469 28.910156 33.5 29.554688 L 39.976562 36.03125 C 40.621094 36.671875 40.621094 37.714844 39.976562 38.359375 C 39.65625 38.679688 39.234375 38.839844 38.8125 38.839844 Z M 38.8125 38.839844 "/>
<path style=" stroke:none;fill-rule:nonzero;fill:rgb(100%,100%,100%);fill-opacity:1;" d="M 32.335938 38.839844 C 31.914062 38.839844 31.492188 38.679688 31.171875 38.359375 C 30.527344 37.714844 30.527344 36.671875 31.171875 36.03125 L 37.648438 29.554688 C 38.292969 28.910156 39.335938 28.910156 39.976562 29.554688 C 40.621094 30.195312 40.621094 31.238281 39.976562 31.882812 L 33.5 38.359375 C 33.179688 38.679688 32.757812 38.839844 32.335938 38.839844 Z M 32.335938 38.839844 "/>
</g>
</svg>
