<?xml version="1.0" encoding="UTF-8"?>
<svg xmlns="http://www.w3.org/2000/svg" xmlns:xlink="http://www.w3.org/1999/xlink" width="50px" height="50px" viewBox="0 0 50 50" version="1.1">
<g id="surface1">
<path style=" stroke:none;fill-rule:nonzero;fill:rgb(12.54902%,76.862745%,79.607843%);fill-opacity:1;" d="M 49.667969 24.972656 C 49.667969 38.613281 38.613281 49.667969 24.972656 49.667969 C 11.332031 49.667969 0.273438 38.613281 0.273438 24.972656 C 0.273438 11.332031 11.332031 0.273438 24.972656 0.273438 C 38.613281 0.273438 49.667969 11.332031 49.667969 24.972656 Z M 49.667969 24.972656 "/>
<path style=" stroke:none;fill-rule:nonzero;fill:rgb(10.588235%,65.490196%,67.843137%);fill-opacity:1;" d="M 18.738281 26.722656 C 14.414062 26.722656 10.898438 23.203125 10.898438 18.878906 C 10.898438 14.558594 14.414062 11.039062 18.738281 11.039062 C 23.0625 11.039062 26.578125 14.558594 26.578125 18.878906 C 26.578125 23.203125 23.0625 26.722656 18.738281 26.722656 Z M 18.738281 14.332031 C 16.230469 14.332031 14.191406 16.371094 14.191406 18.878906 C 14.191406 21.390625 16.230469 23.429688 18.738281 23.429688 C 21.246094 23.429688 23.285156 21.386719 23.285156 18.878906 C 23.285156 16.371094 21.246094 14.332031 18.738281 14.332031 Z M 18.738281 14.332031 "/>
<path style=" stroke:none;fill-rule:nonzero;fill:rgb(10.588235%,65.490196%,67.843137%);fill-opacity:1;" d="M 27.300781 37.222656 L 27.300781 32.933594 C 27.300781 29.605469 24.578125 26.878906 21.246094 26.878906 L 16.960938 26.878906 C 13.628906 26.878906 10.90625 29.601562 10.90625 32.933594 L 10.90625 37.222656 L 27.300781 37.222656 "/>
<path style=" stroke:none;fill-rule:nonzero;fill:rgb(10.588235%,65.490196%,67.843137%);fill-opacity:1;" d="M 27.300781 38.867188 L 10.90625 38.867188 C 9.996094 38.867188 9.257812 38.132812 9.257812 37.222656 L 9.257812 32.933594 C 9.257812 28.6875 12.710938 25.230469 16.960938 25.230469 L 21.25 25.230469 C 25.496094 25.230469 28.949219 28.6875 28.949219 32.933594 L 28.949219 37.222656 C 28.949219 38.132812 28.210938 38.867188 27.300781 38.867188 Z M 12.550781 35.574219 L 25.65625 35.574219 L 25.65625 32.933594 C 25.65625 30.503906 23.679688 28.523438 21.25 28.523438 L 16.960938 28.523438 C 14.527344 28.523438 12.550781 30.503906 12.550781 32.933594 Z M 12.550781 35.574219 "/>
<path style=" stroke:none;fill-rule:nonzero;fill:rgb(100%,100%,100%);fill-opacity:1;" d="M 26.597656 17.214844 C 26.597656 20.636719 23.824219 23.410156 20.402344 23.410156 C 16.984375 23.410156 14.210938 20.636719 14.210938 17.214844 C 14.210938 13.792969 16.984375 11.019531 20.402344 11.019531 C 23.824219 11.019531 26.597656 13.792969 26.597656 17.214844 Z M 26.597656 17.214844 "/>
<path style=" stroke:none;fill-rule:nonzero;fill:rgb(100%,100%,100%);fill-opacity:1;" d="M 20.40625 25.054688 C 16.082031 25.054688 12.566406 21.535156 12.566406 17.214844 C 12.566406 12.890625 16.082031 9.371094 20.40625 9.371094 C 24.730469 9.371094 28.246094 12.890625 28.246094 17.214844 C 28.246094 21.535156 24.730469 25.054688 20.40625 25.054688 Z M 20.40625 12.667969 C 17.898438 12.667969 15.859375 14.707031 15.859375 17.214844 C 15.859375 19.722656 17.898438 21.761719 20.40625 21.761719 C 22.914062 21.761719 24.953125 19.722656 24.953125 17.214844 C 24.953125 14.707031 22.914062 12.667969 20.40625 12.667969 Z M 20.40625 12.667969 "/>
<path style=" stroke:none;fill-rule:nonzero;fill:rgb(100%,100%,100%);fill-opacity:1;" d="M 28.707031 35.816406 L 28.707031 31.527344 C 28.707031 28.199219 25.984375 25.472656 22.652344 25.472656 L 18.363281 25.472656 C 15.035156 25.472656 12.308594 28.199219 12.308594 31.527344 L 12.308594 35.816406 L 28.707031 35.816406 "/>
<path style=" stroke:none;fill-rule:nonzero;fill:rgb(100%,100%,100%);fill-opacity:1;" d="M 28.707031 37.460938 L 12.308594 37.460938 C 11.402344 37.460938 10.664062 36.726562 10.664062 35.816406 L 10.664062 31.527344 C 10.664062 27.28125 14.117188 23.828125 18.363281 23.828125 L 22.652344 23.828125 C 26.898438 23.828125 30.355469 27.28125 30.355469 31.527344 L 30.355469 35.816406 C 30.355469 36.726562 29.617188 37.460938 28.707031 37.460938 Z M 13.957031 34.167969 L 27.0625 34.167969 L 27.0625 31.527344 C 27.0625 29.097656 25.085938 27.121094 22.652344 27.121094 L 18.363281 27.121094 C 15.933594 27.121094 13.957031 29.097656 13.957031 31.527344 Z M 13.957031 34.167969 "/>
<path style=" stroke:none;fill-rule:nonzero;fill:rgb(12.54902%,76.862745%,79.607843%);fill-opacity:1;" d="M 43.835938 32.757812 C 43.835938 37.675781 39.847656 41.660156 34.933594 41.660156 C 30.015625 41.660156 26.03125 37.675781 26.03125 32.757812 C 26.03125 27.84375 30.015625 23.859375 34.933594 23.859375 C 39.847656 23.859375 43.835938 27.84375 43.835938 32.757812 Z M 43.835938 32.757812 "/>
<path style=" stroke:none;fill-rule:nonzero;fill:rgb(10.588235%,65.490196%,67.843137%);fill-opacity:1;" d="M 38.40625 35.324219 L 29.246094 35.324219 C 28.335938 35.324219 27.601562 34.589844 27.601562 33.679688 C 27.601562 32.769531 28.335938 32.03125 29.246094 32.03125 L 38.40625 32.03125 C 39.316406 32.03125 40.054688 32.769531 40.054688 33.679688 C 40.054688 34.589844 39.316406 35.324219 38.40625 35.324219 Z M 38.40625 35.324219 "/>
<path style=" stroke:none;fill-rule:nonzero;fill:rgb(10.588235%,65.490196%,67.843137%);fill-opacity:1;" d="M 33.828125 39.90625 C 32.917969 39.90625 32.179688 39.167969 32.179688 38.257812 L 32.179688 29.097656 C 32.179688 28.1875 32.917969 27.453125 33.828125 27.453125 C 34.738281 27.453125 35.472656 28.1875 35.472656 29.097656 L 35.472656 38.257812 C 35.472656 39.167969 34.738281 39.90625 33.828125 39.90625 Z M 33.828125 39.90625 "/>
<path style=" stroke:none;fill-rule:nonzero;fill:rgb(100%,100%,100%);fill-opacity:1;" d="M 39.851562 33.59375 L 30.691406 33.59375 C 29.78125 33.59375 29.042969 32.855469 29.042969 31.949219 C 29.042969 31.039062 29.78125 30.300781 30.691406 30.300781 L 39.851562 30.300781 C 40.761719 30.300781 41.496094 31.039062 41.496094 31.949219 C 41.496094 32.855469 40.761719 33.59375 39.851562 33.59375 Z M 39.851562 33.59375 "/>
<path style=" stroke:none;fill-rule:nonzero;fill:rgb(100%,100%,100%);fill-opacity:1;" d="M 35.269531 38.175781 C 34.363281 38.175781 33.625 37.4375 33.625 36.527344 L 33.625 27.367188 C 33.625 26.457031 34.363281 25.71875 35.269531 25.71875 C 36.179688 25.71875 36.917969 26.457031 36.917969 27.367188 L 36.917969 36.527344 C 36.917969 37.4375 36.179688 38.175781 35.269531 38.175781 Z M 35.269531 38.175781 "/>
</g>
</svg>
