<?xml version="1.0" encoding="UTF-8"?>
<svg xmlns="http://www.w3.org/2000/svg" xmlns:xlink="http://www.w3.org/1999/xlink" width="100px" height="100px" viewBox="0 0 100 100" version="1.1">
<g id="surface1">
<path style=" stroke:none;fill-rule:nonzero;fill:rgb(0%,0%,0%);fill-opacity:1;" d="M 29.574219 1.515625 C 23.289062 3.15625 18.605469 7.777344 16.597656 14.320312 C 16.097656 16.003906 16.035156 16.566406 16.035156 19.351562 C 16.035156 22.136719 16.101562 22.699219 16.597656 24.382812 C 17.695312 27.96875 19.253906 30.515625 21.90625 33 C 23.269531 34.296875 24.132812 34.878906 25.859375 35.71875 C 29.035156 37.273438 30.460938 37.597656 34.238281 37.597656 C 37.542969 37.597656 38.792969 37.382812 41.40625 36.324219 C 44.171875 35.203125 47.238281 32.804688 49.027344 30.363281 C 50.128906 28.875 51.402344 26.199219 51.988281 24.210938 C 52.679688 21.726562 52.699219 16.976562 51.988281 14.539062 C 50 7.605469 44.949219 2.75 38.234375 1.324219 C 35.855469 0.824219 31.949219 0.910156 29.574219 1.515625 Z M 29.574219 1.515625 "/>
<path style=" stroke:none;fill-rule:nonzero;fill:rgb(0%,0%,0%);fill-opacity:1;" d="M 17.824219 41.9375 C 12.148438 43.429688 8.714844 46.515625 7.570312 51.113281 C 7.09375 53.015625 6.902344 60.292969 7.222656 64.007812 C 7.546875 67.546875 8.066406 69.683594 9.210938 72.015625 C 10.03125 73.699219 10.160156 73.851562 11.195312 74.328125 C 12.535156 74.933594 14.996094 75.386719 19.660156 75.859375 C 22.359375 76.140625 25.40625 76.226562 33.695312 76.226562 C 39.527344 76.246094 45.226562 76.160156 46.390625 76.074219 C 48.378906 75.902344 48.488281 75.859375 48.488281 75.386719 C 48.488281 74.304688 49.609375 70.613281 50.515625 68.671875 C 52.566406 64.328125 55.503906 60.917969 59.371094 58.414062 L 61.507812 57.03125 L 61.378906 54.65625 C 61.074219 48.914062 59.066406 45.566406 54.664062 43.429688 C 53 42.609375 49.09375 41.378906 48.183594 41.378906 C 48.035156 41.378906 47.625 41.984375 47.257812 42.71875 C 46.890625 43.472656 45.65625 45.222656 44.535156 46.625 C 41.726562 50.058594 40.109375 52.347656 38.339844 55.328125 C 37.085938 57.421875 36.828125 57.746094 36.738281 57.335938 C 36.222656 55.046875 35.53125 50.488281 35.53125 49.5625 C 35.53125 48.09375 35.984375 47.121094 37.667969 44.855469 C 38.984375 43.0625 39.289062 42.175781 38.640625 41.941406 C 38.445312 41.875 36.4375 41.808594 34.148438 41.808594 C 28.664062 41.808594 28.601562 41.851562 30.996094 45.050781 C 31.839844 46.171875 32.59375 47.425781 32.703125 47.835938 C 32.8125 48.265625 32.960938 48.851562 33.027344 49.152344 C 33.15625 49.714844 31.859375 57.574219 31.644531 57.574219 C 31.578125 57.574219 31.128906 56.925781 30.671875 56.105469 C 29.097656 53.382812 26.507812 49.691406 24.195312 46.886719 C 22.941406 45.328125 21.625 43.472656 21.257812 42.71875 C 20.824219 41.832031 20.480469 41.378906 20.242188 41.378906 C 20.050781 41.398438 18.949219 41.636719 17.824219 41.9375 Z M 17.824219 41.9375 "/>
<path style=" stroke:none;fill-rule:nonzero;fill:rgb(0%,0%,0%);fill-opacity:1;" d="M 70.167969 58.886719 C 67.101562 59.234375 63.453125 60.703125 60.859375 62.601562 C 57.101562 65.386719 54.578125 69.101562 53.195312 73.917969 C 52.503906 76.3125 52.503906 81.472656 53.195312 84.023438 C 55.117188 91.019531 60.34375 96.285156 67.488281 98.425781 C 69.324219 98.984375 73.792969 99.179688 76.039062 98.8125 C 83.488281 97.625 89.6875 92.269531 91.953125 85.101562 C 93.527344 80.113281 93.203125 75.019531 91.003906 70.355469 C 89.902344 67.980469 88.628906 66.230469 86.683594 64.371094 C 83.316406 61.175781 79.601562 59.429688 75.046875 58.867188 C 73.015625 58.628906 72.390625 58.628906 70.167969 58.886719 Z M 84.9375 71.476562 C 86.125 72.707031 86.492188 73.203125 86.492188 73.679688 C 86.492188 74.195312 85.304688 75.492188 78.738281 82.058594 C 71.59375 89.203125 70.945312 89.808594 70.273438 89.785156 C 69.648438 89.765625 69.023438 89.226562 64.964844 85.164062 C 59.390625 79.59375 59.523438 79.917969 61.917969 77.5 C 64.207031 75.210938 64.25 75.210938 67.640625 78.558594 L 70.296875 81.191406 L 75.867188 75.664062 C 78.910156 72.640625 81.609375 70.027344 81.847656 69.898438 C 82.605469 69.488281 83.316406 69.855469 84.9375 71.476562 Z M 84.9375 71.476562 "/>
</g>
</svg>
